<svg enable-background="new 0 0 40 40" viewBox="0 0 40 40" xmlns="http://www.w3.org/2000/svg" xmlns:xlink="http://www.w3.org/1999/xlink"><radialGradient id="a" cx="-30" cy="454.981" gradientUnits="userSpaceOnUse" r="364.5605"><stop offset="0" stop-color="#5eade9"/><stop offset="1" stop-color="#1f2e6c"/></radialGradient><path d="m121 392.6c-113.3 43.4-220.6 40.6-320 0v-270.6h320z" fill="url(#a)"/><path d="m22.4 39.2.1-.8c0-.4.3-.7.7-.8 1-.2 2-.5 3-.8.4-.1.8 0 1 .3l.5.7c.3.4.8.5 1.2.3l2.4-1.4c.4-.2.6-.7.4-1.2l-.3-.8c-.2-.4-.1-.8.2-1.1.7-.6 1.4-1.3 2-2 .3-.3.7-.4 1.1-.2l.8.3c.4.2.9 0 1.2-.4l1.4-2.4c.2-.4.1-.9-.3-1.2l-.7-.5c-.3-.2-.5-.7-.3-1.1.3-1 .6-1.9.8-3 .1-.4.4-.7.8-.7l.8-.1c.5 0 .8-.4.8-.9v-2.8c0-.5-.4-.9-.8-.9l-.8-.1c-.4 0-.7-.3-.8-.8-.2-1-.5-2-.8-3-.1-.4 0-.8.3-1.1l.7-.5c.4-.3.5-.8.3-1.2l-1.4-2.4c-.2-.4-.7-.6-1.2-.4l-.7.3c-.4.2-.8.1-1.1-.2-.6-.7-1.3-1.4-2-2-.3-.3-.4-.7-.2-1.1l.3-.8c.2-.4 0-.9-.4-1.2l-2.5-1.2c-.4-.2-.9-.1-1.2.3l-.5.7c-.2.3-.7.5-1 .3-.9-.3-1.9-.6-2.9-.8-.4-.1-.7-.4-.7-.8l-.1-.8c-.1-.5-.5-.9-1-.9h-2.8c-.5 0-.9.4-.9.8l-.1.8c0 .4-.3.7-.7.8-1 .2-2 .5-3 .8-.4.1-.8 0-1-.3l-.5-.7c-.3-.4-.8-.5-1.2-.3l-2.4 1.6c-.4.2-.6.7-.4 1.2l.3.8c.2.3.1.7-.2 1-.7.6-1.4 1.3-2 2-.3.3-.7.4-1.1.3l-.7-.4c-.4-.2-.9 0-1.2.4l-1.4 2.4c-.2.4-.1.9.3 1.2l.7.5c.3.2.5.7.3 1.1-.3 1-.6 1.9-.8 3-.1.4-.4.7-.8.7l-.9.1c-.5 0-.9.4-.9.9v2.8c0 .5.5.9.9.9l.9.1c.4 0 .8.3.8.8.2 1 .5 2 .8 3 .1.4 0 .8-.3 1.1l-.7.5c-.4.1-.5.7-.3 1.1l1.4 2.4c.2.4.7.6 1.2.4l.7-.3c.4-.2.8-.1 1.1.2.6.7 1.3 1.4 2 2 .3.3.4.7.2 1.1l-.3.8c-.2.4 0 .9.4 1.2l2.4 1.4c.4.2.9.1 1.2-.3l.5-.7c.2-.3.7-.5 1-.3.9.3 1.9.6 2.9.8.4.1.7.4.7.8l.1.8c0 .5.4.8.9.8h2.8c.6-.1 1-.4 1-.9zm-16.5-19.1c0-7.9 6.4-14.3 14.2-14.3s14.2 6.4 14.2 14.3-6.3 14.3-14.2 14.3-14.2-6.4-14.2-14.3z" fill="#ff9800"/></svg>